<?xml version="1.0" encoding="UTF-8" standalone="no"?>
<!-- Created with Inkscape (http://www.inkscape.org/) -->

<svg
   xmlns:dc="http://purl.org/dc/elements/1.1/"
   xmlns:cc="http://creativecommons.org/ns#"
   xmlns:rdf="http://www.w3.org/1999/02/22-rdf-syntax-ns#"
   xmlns:svg="http://www.w3.org/2000/svg"
   xmlns="http://www.w3.org/2000/svg"
   xmlns:sodipodi="http://sodipodi.sourceforge.net/DTD/sodipodi-0.dtd"
   xmlns:inkscape="http://www.inkscape.org/namespaces/inkscape"
   width="512"
   height="512"
   viewBox="0 0 512.00001 512.00001"
   id="svg4148"
   version="1.1"
   inkscape:version="0.91 r13725"
   sodipodi:docname="oyloo.svg"
   inkscape:export-filename="C:\Users\edil\Dropbox\oyloo\oyloo\touch\chrome-touch-icon-192x192.png"
   inkscape:export-xdpi="33.75"
   inkscape:export-ydpi="33.75">
  <defs
     id="defs4150" />
  <sodipodi:namedview
     id="base"
     pagecolor="#ffffff"
     bordercolor="#666666"
     borderopacity="1.0"
     inkscape:pageopacity="0.0"
     inkscape:pageshadow="2"
     inkscape:zoom="1.16"
     inkscape:cx="-75.500308"
     inkscape:cy="179.06186"
     inkscape:document-units="px"
     inkscape:current-layer="layer1"
     showgrid="true"
     units="px"
     borderlayer="true"
     inkscape:window-width="1920"
     inkscape:window-height="1017"
     inkscape:window-x="1072"
     inkscape:window-y="268"
     inkscape:window-maximized="1"
     showguides="false">
    <inkscape:grid
       type="xygrid"
       id="grid4158"
       spacingx="16"
       spacingy="16"
       empspacing="2" />
  </sodipodi:namedview>
  <metadata
     id="metadata4153">
    <rdf:RDF>
      <cc:Work
         rdf:about="">
        <dc:format>image/svg+xml</dc:format>
        <dc:type
           rdf:resource="http://purl.org/dc/dcmitype/StillImage" />
        <dc:title />
      </cc:Work>
    </rdf:RDF>
  </metadata>
  <g
     inkscape:label="Layer 1"
     inkscape:groupmode="layer"
     id="layer1"
     transform="translate(0,-540.36216)">
    <path
       style="opacity:1;fill:#ffffff;fill-opacity:1;fill-rule:evenodd;stroke:none;stroke-opacity:1"
       d="M 256,540.3622 A 256,255.99993 0 0 0 0,796.36213 256,255.99993 0 0 0 256,1052.3622 256,255.99993 0 0 0 512,796.36213 256,255.99993 0 0 0 256,540.3622 Z m 0,73.14284 A 182.85714,182.85709 0 0 1 438.85714,796.36213 182.85714,182.85709 0 0 1 256,979.21923 182.85714,182.85709 0 0 1 73.142857,796.36213 182.85714,182.85709 0 0 1 256,613.50504 Z m -18.28571,36.57142 0,73.14283 36.57142,0 0,-73.14283 -36.57142,0 z m 108.59152,29.75891 -90.35269,90.6674 -90.66518,-90.35266 -25.81473,25.90624 90.66742,90.35042 7.57366,7.54688 0,0.002 0,138.69192 36.57142,0 0,-138.72987 7.57366,-7.60044 90.35269,-90.66739 -25.90625,-25.81473 z M 173.71429,814.64784 a 27.428571,27.428564 0 0 0 -27.42858,27.42856 27.428571,27.428564 0 0 0 27.42858,27.42857 27.428571,27.428564 0 0 0 27.42857,-27.42857 27.428571,27.428564 0 0 0 -27.42857,-27.42856 z m 164.57142,0 a 27.428571,27.428564 0 0 0 -27.42857,27.42856 27.428571,27.428564 0 0 0 27.42857,27.42857 27.428571,27.428564 0 0 0 27.42858,-27.42857 27.428571,27.428564 0 0 0 -27.42858,-27.42856 z m -164.57142,18.28571 a 9.1428571,9.1428547 0 0 1 9.14285,9.14285 9.1428571,9.1428547 0 0 1 -9.14285,9.14286 9.1428571,9.1428547 0 0 1 -9.14286,-9.14286 9.1428571,9.1428547 0 0 1 9.14286,-9.14285 z m 164.57142,0 a 9.1428571,9.1428547 0 0 1 9.14286,9.14285 9.1428571,9.1428547 0 0 1 -9.14286,9.14286 9.1428571,9.1428547 0 0 1 -9.14285,-9.14286 9.1428571,9.1428547 0 0 1 9.14285,-9.14285 z"
       id="path6702"
       inkscape:connector-curvature="0" />
  </g>
</svg>
